<svg width="25" height="26" viewBox="0 0 25 26" fill="none" xmlns="http://www.w3.org/2000/svg">
<g id="DUCKCOIN" clip-path="url(#clip0_303_347)">
<path id="Vector" d="M1.71497 12.9992C1.71497 6.48015 5.98099 1.05046 11.563 0C10.0472 0.0103237 8.55079 0.348766 7.17321 0.992873H7.31689C7.35743 0.992873 7.3963 1.00927 7.42497 1.03846C7.45363 1.06764 7.46974 1.10722 7.46974 1.1485C7.46974 1.18977 7.45363 1.22936 7.42497 1.25854C7.3963 1.28773 7.35743 1.30412 7.31689 1.30412H6.55264C5.70065 1.76845 4.90932 2.33991 4.19724 3.00509H4.5656C4.60614 3.00509 4.64502 3.02148 4.67368 3.05067C4.70235 3.07985 4.71845 3.11944 4.71845 3.16071C4.71845 3.20198 4.70235 3.24157 4.67368 3.27075C4.64502 3.29994 4.60614 3.31633 4.5656 3.31633H3.87472C3.35231 3.83874 2.8766 4.40745 2.45323 5.01574H3.03711C3.07765 5.01574 3.11653 5.03214 3.14519 5.06132C3.17386 5.09051 3.18996 5.13009 3.18996 5.17136C3.18996 5.21264 3.17386 5.25222 3.14519 5.28141C3.11653 5.31059 3.07765 5.32699 3.03711 5.32699H2.2423C1.88729 5.86905 1.57208 6.43707 1.29922 7.0264H1.96717C2.00771 7.0264 2.04658 7.04279 2.07525 7.07197C2.10391 7.10116 2.12002 7.14074 2.12002 7.18202C2.12002 7.22329 2.10391 7.26287 2.07525 7.29206C2.04658 7.32124 2.00771 7.33764 1.96717 7.33764H1.1586C0.899001 7.93557 0.682396 8.5519 0.510514 9.18178H1.20292C1.24346 9.18178 1.28234 9.19818 1.311 9.22736C1.33967 9.25655 1.35577 9.29613 1.35577 9.3374C1.35577 9.37868 1.33967 9.41826 1.311 9.44744C1.28234 9.47663 1.24346 9.49303 1.20292 9.49303H0.429508C0.288575 10.0521 0.182892 10.6197 0.11311 11.1924H0.897226C0.937764 11.1924 0.97664 11.2088 1.0053 11.238C1.03397 11.2672 1.05008 11.3068 1.05008 11.3481C1.05008 11.3893 1.03397 11.4289 1.0053 11.4581C0.97664 11.4873 0.937764 11.5037 0.897226 11.5037H0.0779573C0.0257165 12.0004 -0.000306711 12.4996 2.7272e-06 12.9992C2.7272e-06 13.0677 2.7272e-06 13.1362 2.7272e-06 13.2046H0.895696C0.936234 13.2046 0.97511 13.221 1.00377 13.2502C1.03244 13.2794 1.04855 13.319 1.04855 13.3603C1.04855 13.4015 1.03244 13.4411 1.00377 13.4703C0.97511 13.4995 0.936234 13.5159 0.895696 13.5159H0.00764332C0.0242368 14.085 0.0752834 14.6526 0.160492 15.2153H1.19375C1.23429 15.2153 1.27317 15.2317 1.30183 15.2609C1.3305 15.2901 1.3466 15.3296 1.3466 15.3709C1.3466 15.4122 1.3305 15.4518 1.30183 15.481C1.27317 15.5102 1.23429 15.5265 1.19375 15.5265H0.210935C0.321858 16.1508 0.475073 16.7664 0.669483 17.3691H1.35118C1.39172 17.3691 1.43061 17.3855 1.45927 17.4147C1.48794 17.4439 1.50403 17.4835 1.50403 17.5247C1.50403 17.566 1.48794 17.6056 1.45927 17.6348C1.43061 17.664 1.39172 17.6804 1.35118 17.6804H0.782589C0.983644 18.2636 1.2242 18.832 1.50251 19.3813H1.97176C2.0123 19.3813 2.05117 19.3977 2.07984 19.4269C2.1085 19.4561 2.12461 19.4957 2.12461 19.537C2.12461 19.5782 2.1085 19.6178 2.07984 19.647C2.05117 19.6762 2.0123 19.6926 1.97176 19.6926H1.66606C1.98548 20.2873 2.35038 20.8555 2.7574 21.392H3.19607C3.23661 21.392 3.2755 21.4084 3.30416 21.4376C3.33283 21.4668 3.34892 21.5063 3.34892 21.5476C3.34892 21.5889 3.33283 21.6285 3.30416 21.6577C3.2755 21.6868 3.23661 21.7032 3.19607 21.7032H3.00043C3.49962 22.3235 4.05711 22.8927 4.66496 23.4026H5.03026C5.05034 23.4013 5.07047 23.404 5.08951 23.4106C5.10856 23.4172 5.12615 23.4276 5.14126 23.4411C5.15638 23.4546 5.16873 23.471 5.17762 23.4894C5.1865 23.5077 5.19174 23.5277 5.19305 23.5482C5.19435 23.5686 5.1917 23.5891 5.18522 23.6085C5.17874 23.6279 5.16858 23.6458 5.15531 23.6612C5.14204 23.6765 5.12592 23.6891 5.10787 23.6982C5.08983 23.7072 5.07021 23.7126 5.05013 23.7139C6.12227 24.5444 7.33364 25.1698 8.62528 25.5596L8.81481 25.614C9.71127 25.8654 10.6363 25.9957 11.5661 26.0015C5.97946 24.9495 1.71497 19.5198 1.71497 12.9992Z" fill="#FDCC27"/>
<path id="Vector_2" d="M13.6052 0.183655H13.5379C7.21912 0.183655 2.07422 5.93238 2.07422 12.9992C2.07422 20.0661 7.21606 25.8164 13.5379 25.8164H13.6052C19.8949 25.7759 25.0001 20.0412 25.0001 12.9992C25.0001 5.95728 19.8888 0.222561 13.6052 0.183655ZM16.6789 24.7223C15.6671 25.0602 14.6089 25.232 13.544 25.2312C7.4973 25.2312 2.57862 19.7424 2.57862 12.9946C2.57862 6.24674 7.49119 0.756348 13.5379 0.756348C14.6006 0.756015 15.6567 0.927253 16.6667 1.26368C21.1941 2.77012 24.5033 7.45905 24.5033 12.993C24.5033 18.527 21.1987 23.219 16.6789 24.7223Z" fill="#FDCC27"/>
<path id="Vector_3" d="M17.6235 1.8457C16.3399 1.25375 14.947 0.947613 13.5378 0.947754C7.59201 0.947754 2.75281 6.35411 2.75281 13.0008C2.75281 19.6475 7.59201 25.0538 13.5378 25.0538C14.9486 25.0543 16.3433 24.7476 17.6281 24.1543C21.5532 22.3491 24.3213 18.0305 24.3213 12.9992C24.3213 7.96792 21.5517 3.64626 17.6235 1.8457ZM20.5123 14.0575C20.5123 14.1477 20.5123 14.238 20.5123 14.3283C20.5123 18.7806 17.2796 22.388 13.2918 22.388C9.30392 22.388 6.07269 18.7806 6.07269 14.3283C6.07289 13.9897 6.09177 13.6515 6.12924 13.3151C7.09016 13.9731 8.21789 14.3331 9.37575 14.3516C10.3815 14.3516 11.4239 13.8209 12.5856 13.3058C10.9883 12.5277 9.87099 10.7442 9.87099 8.67134C9.87006 8.13865 9.94523 7.60865 10.0941 7.09799C10.6872 5.07488 12.3869 3.61358 14.3999 3.61358C16.8195 3.61358 18.7974 5.73161 18.9227 8.40056H20.9969C21.0038 8.87072 20.8969 9.33538 20.6858 9.7536C20.4747 10.1718 20.1658 10.5307 19.7863 10.7987C19.4026 11.0598 18.9516 11.1995 18.4901 11.2002C18.4351 11.2002 18.3801 11.2002 18.3266 11.2002C18.0741 11.6927 17.7418 12.1383 17.3438 12.5184C18.3128 12.7144 19.3614 13.186 20.5123 14.0559V14.0575Z" fill="#FDCC27"/>
</g>
<defs>
<clipPath id="clip0_303_347">
<rect width="25" height="26" fill="white"/>
</clipPath>
</defs>
</svg>
