<svg width="18" height="19" viewBox="0 0 18 19" fill="none" xmlns="http://www.w3.org/2000/svg">
<g clip-path="url(#clip0_227_197)">
<path d="M1.4418 9.49945C1.4418 4.7982 4.45427 0.882557 8.39606 0.125015C7.32563 0.13246 6.26895 0.376529 5.29616 0.84103H5.39762C5.42625 0.84103 5.4537 0.852855 5.47394 0.873902C5.49419 0.894949 5.50556 0.923493 5.50556 0.953258C5.50556 0.983023 5.49419 1.01157 5.47394 1.03262C5.4537 1.05366 5.42625 1.06549 5.39762 1.06549H4.85795C4.25631 1.40034 3.69751 1.81245 3.19467 2.29215H3.45479C3.48342 2.29215 3.51087 2.30397 3.53111 2.32501C3.55136 2.34606 3.56273 2.37461 3.56273 2.40437C3.56273 2.43414 3.55136 2.46268 3.53111 2.48373C3.51087 2.50478 3.48342 2.5166 3.45479 2.5166H2.96693C2.59802 2.89334 2.2621 3.30346 1.96313 3.74213H2.37544C2.40407 3.74213 2.43152 3.75396 2.45176 3.77501C2.47201 3.79605 2.48338 3.8246 2.48338 3.85436C2.48338 3.88413 2.47201 3.91268 2.45176 3.93372C2.43152 3.95477 2.40407 3.96659 2.37544 3.96659H1.81418C1.56349 4.35751 1.3409 4.76713 1.14822 5.19213H1.6199C1.64852 5.19213 1.67598 5.20395 1.69622 5.225C1.71646 5.24604 1.72783 5.27459 1.72783 5.30436C1.72783 5.33412 1.71646 5.36266 1.69622 5.38371C1.67598 5.40476 1.64852 5.41658 1.6199 5.41658H1.04892C0.865607 5.84778 0.712651 6.29225 0.591275 6.74649H1.08022C1.10885 6.74649 1.1363 6.75832 1.15654 6.77936C1.17679 6.80041 1.18816 6.82895 1.18816 6.85872C1.18816 6.88848 1.17679 6.91703 1.15654 6.93808C1.1363 6.95912 1.10885 6.97095 1.08022 6.97095H0.534073C0.434552 7.37409 0.359924 7.78343 0.310647 8.19648H0.864354C0.89298 8.19648 0.920432 8.20831 0.940674 8.22935C0.960916 8.2504 0.972289 8.27894 0.972289 8.30871C0.972289 8.33847 0.960916 8.36702 0.940674 8.38806C0.920432 8.40911 0.89298 8.42094 0.864354 8.42094H0.285824C0.248934 8.77916 0.230557 9.13918 0.230776 9.49945C0.230776 9.54883 0.230776 9.59821 0.230776 9.64759H0.863273C0.8919 9.64759 0.919352 9.65942 0.939593 9.68046C0.959835 9.70151 0.971208 9.73006 0.971208 9.75982C0.971208 9.78959 0.959835 9.81813 0.939593 9.83918C0.919352 9.86022 0.8919 9.87205 0.863273 9.87205H0.236171C0.247889 10.2825 0.283936 10.6918 0.344106 11.0976H1.07375C1.10237 11.0976 1.12983 11.1094 1.15007 11.1305C1.17031 11.1515 1.18168 11.18 1.18168 11.2098C1.18168 11.2396 1.17031 11.2681 1.15007 11.2892C1.12983 11.3102 1.10237 11.322 1.07375 11.322H0.379727C0.458055 11.7722 0.566248 12.2162 0.703532 12.6508H1.18492C1.21354 12.6508 1.241 12.6627 1.26124 12.6837C1.28149 12.7047 1.29285 12.7333 1.29285 12.7631C1.29285 12.7928 1.28149 12.8214 1.26124 12.8424C1.241 12.8635 1.21354 12.8753 1.18492 12.8753H0.783403C0.925378 13.2959 1.09525 13.7058 1.29178 14.1019H1.62314C1.65177 14.1019 1.67922 14.1138 1.69946 14.1348C1.7197 14.1559 1.73108 14.1844 1.73108 14.2142C1.73108 14.2439 1.7197 14.2725 1.69946 14.2935C1.67922 14.3146 1.65177 14.3264 1.62314 14.3264H1.40727C1.63283 14.7553 1.89051 15.1651 2.17792 15.5519H2.48769C2.51632 15.5519 2.54378 15.5638 2.56402 15.5848C2.58426 15.6058 2.59563 15.6344 2.59563 15.6642C2.59563 15.6939 2.58426 15.7225 2.56402 15.7435C2.54378 15.7646 2.51632 15.7764 2.48769 15.7764H2.34954C2.70204 16.2237 3.09572 16.6342 3.52495 17.0019H3.78291C3.79709 17.001 3.81131 17.0029 3.82475 17.0077C3.8382 17.0124 3.85062 17.0199 3.8613 17.0296C3.87197 17.0394 3.88069 17.0512 3.88697 17.0645C3.89324 17.0777 3.89694 17.0921 3.89787 17.1069C3.89879 17.1216 3.89691 17.1364 3.89234 17.1504C3.88776 17.1643 3.88059 17.1772 3.87122 17.1883C3.86185 17.1994 3.85046 17.2085 3.83772 17.215C3.82498 17.2216 3.81112 17.2254 3.79695 17.2264C4.55404 17.8253 5.40945 18.2763 6.32155 18.5574L6.45539 18.5967C7.08842 18.7779 7.74163 18.8719 8.39822 18.8761C4.45319 18.1175 1.4418 14.2018 1.4418 9.49945Z" fill="#110421"/>
<path d="M9.83808 0.257431H9.79059C5.32856 0.257431 1.69547 4.40315 1.69547 9.49944C1.69547 14.5957 5.3264 18.7426 9.79059 18.7426H9.83808C14.2796 18.7134 17.8846 14.5778 17.8846 9.49944C17.8846 4.4211 14.2753 0.285488 9.83808 0.257431ZM12.0087 17.9536C11.2941 18.1972 10.5469 18.3211 9.7949 18.3206C5.525 18.3206 2.05165 14.3623 2.05165 9.49607C2.05165 4.62985 5.52068 0.670431 9.79059 0.670431C10.541 0.670191 11.2868 0.79368 12 1.0363C15.197 2.12267 17.5338 5.50411 17.5338 9.49495C17.5338 13.4858 15.2003 16.8695 12.0087 17.9536Z" fill="#110421"/>
<path d="M12.6757 1.45603C11.7693 1.02914 10.7856 0.80837 9.79057 0.808472C5.5919 0.808472 2.17468 4.70728 2.17468 9.50056C2.17468 14.2938 5.5919 18.1926 9.79057 18.1926C10.7868 18.193 11.7716 17.9718 12.6789 17.544C15.4507 16.2421 17.4054 13.1278 17.4054 9.49944C17.4054 5.87109 15.4496 2.75451 12.6757 1.45603ZM14.7156 10.2626C14.7156 10.3277 14.7156 10.3928 14.7156 10.4579C14.7156 13.6687 12.4328 16.2702 9.6168 16.2702C6.80078 16.2702 4.51903 13.6687 4.51903 10.4579C4.51917 10.2137 4.53251 9.96983 4.55896 9.72726C5.23752 10.2017 6.03387 10.4614 6.8515 10.4747C7.56171 10.4747 8.29783 10.092 9.11814 9.72053C7.99021 9.15939 7.20122 7.87325 7.20122 6.37836C7.20056 5.99421 7.25364 5.612 7.3588 5.24374C7.77758 3.78477 8.97783 2.73094 10.3993 2.73094C12.1079 2.73094 13.5046 4.25837 13.5931 6.18309H15.0578C15.0627 6.52215 14.9872 6.85724 14.8381 7.15884C14.6891 7.46044 14.4709 7.71927 14.203 7.91253C13.932 8.10084 13.6136 8.20158 13.2877 8.20208C13.2488 8.20208 13.21 8.20208 13.1722 8.20208C12.9938 8.55723 12.7592 8.87859 12.4782 9.15265C13.1625 9.29406 13.9029 9.63411 14.7156 10.2615V10.2626Z" fill="#110421"/>
</g>
<defs>
<clipPath id="clip0_227_197">
<rect width="17.6538" height="18.75" fill="white" transform="translate(0.230774 0.125)"/>
</clipPath>
</defs>
</svg>
