<svg width="240" height="240" viewBox="0 0 240 240" fill="none" xmlns="http://www.w3.org/2000/svg">
<path d="M11.4286 0H0V11.4286H11.4286V0Z" fill="#110421"/>
<path d="M22.8571 0H11.4286V11.4286H22.8571V0Z" fill="#110421"/>
<path d="M34.2857 0H22.8571V11.4286H34.2857V0Z" fill="#110421"/>
<path d="M45.7143 0H34.2857V11.4286H45.7143V0Z" fill="#110421"/>
<path d="M57.1429 0H45.7143V11.4286H57.1429V0Z" fill="#110421"/>
<path d="M68.5714 0H57.1429V11.4286H68.5714V0Z" fill="#110421"/>
<path d="M80 0H68.5714V11.4286H80V0Z" fill="#110421"/>
<path d="M102.857 0H91.4286V11.4286H102.857V0Z" fill="#110421"/>
<path d="M114.286 0H102.857V11.4286H114.286V0Z" fill="#110421"/>
<path d="M125.714 0H114.286V11.4286H125.714V0Z" fill="#110421"/>
<path d="M137.143 0H125.714V11.4286H137.143V0Z" fill="#110421"/>
<path d="M171.429 0H160V11.4286H171.429V0Z" fill="#110421"/>
<path d="M182.857 0H171.429V11.4286H182.857V0Z" fill="#110421"/>
<path d="M194.286 0H182.857V11.4286H194.286V0Z" fill="#110421"/>
<path d="M205.714 0H194.286V11.4286H205.714V0Z" fill="#110421"/>
<path d="M217.143 0H205.714V11.4286H217.143V0Z" fill="#110421"/>
<path d="M228.571 0H217.143V11.4286H228.571V0Z" fill="#110421"/>
<path d="M240 0H228.571V11.4286H240V0Z" fill="#110421"/>
<path d="M11.4286 11.4286H0V22.8571H11.4286V11.4286Z" fill="#110421"/>
<path d="M80 11.4286H68.5714V22.8571H80V11.4286Z" fill="#110421"/>
<path d="M125.714 11.4286H114.286L114.286 22.8571H125.714V11.4286Z" fill="#110421"/>
<path d="M148.571 11.4286H137.143V22.8571H148.571V11.4286Z" fill="#110421"/>
<path d="M171.429 11.4286H160V22.8571H171.429V11.4286Z" fill="#110421"/>
<path d="M240 11.4286H228.571V22.8571H240V11.4286Z" fill="#110421"/>
<path d="M11.4286 22.8571H0V34.2857H11.4286V22.8571Z" fill="#110421"/>
<path d="M34.2857 22.8571H22.8571V34.2857H34.2857V22.8571Z" fill="#110421"/>
<path d="M45.7143 22.8571H34.2857V34.2857H45.7143V22.8571Z" fill="#110421"/>
<path d="M57.1429 22.8571H45.7143V34.2857H57.1429V22.8571Z" fill="#110421"/>
<path d="M80 22.8571H68.5714V34.2857H80V22.8571Z" fill="#110421"/>
<path d="M114.286 22.8571H102.857V34.2857H114.286L114.286 22.8571Z" fill="#110421"/>
<path d="M137.143 22.8571H125.714L125.714 34.2857H137.143V22.8571Z" fill="#110421"/>
<path d="M171.429 22.8571H160V34.2857H171.429V22.8571Z" fill="#110421"/>
<path d="M194.286 22.8571H182.857V34.2857H194.286V22.8571Z" fill="#110421"/>
<path d="M205.714 22.8571H194.286V34.2857H205.714V22.8571Z" fill="#110421"/>
<path d="M217.143 22.8571H205.714V34.2857H217.143V22.8571Z" fill="#110421"/>
<path d="M240 22.8571H228.571V34.2857H240V22.8571Z" fill="#110421"/>
<path d="M11.4286 34.2857H0V45.7143H11.4286V34.2857Z" fill="#110421"/>
<path d="M34.2857 34.2857H22.8571V45.7143H34.2857V34.2857Z" fill="#110421"/>
<path d="M45.7143 34.2857H34.2857V45.7143H45.7143V34.2857Z" fill="#110421"/>
<path d="M57.1429 34.2857H45.7143V45.7143H57.1429V34.2857Z" fill="#110421"/>
<path d="M80 34.2857H68.5714V45.7143H80V34.2857Z" fill="#110421"/>
<path d="M114.286 34.2857H102.857V45.7143H114.286V34.2857Z" fill="#110421"/>
<path d="M125.714 34.2857H114.286V45.7143H125.714L125.714 34.2857Z" fill="#110421"/>
<path d="M137.143 34.2857H125.714L125.714 45.7143H137.143V34.2857Z" fill="#110421"/>
<path d="M148.571 34.2857H137.143V45.7143H148.571V34.2857Z" fill="#110421"/>
<path d="M171.429 34.2857H160V45.7143H171.429V34.2857Z" fill="#110421"/>
<path d="M194.286 34.2857H182.857V45.7143H194.286V34.2857Z" fill="#110421"/>
<path d="M205.714 34.2857H194.286V45.7143H205.714V34.2857Z" fill="#110421"/>
<path d="M217.143 34.2857H205.714V45.7143H217.143V34.2857Z" fill="#110421"/>
<path d="M240 34.2857H228.571V45.7143H240V34.2857Z" fill="#110421"/>
<path d="M11.4286 45.7143H0V57.1429H11.4286V45.7143Z" fill="#110421"/>
<path d="M34.2857 45.7143H22.8571V57.1429H34.2857V45.7143Z" fill="#110421"/>
<path d="M45.7143 45.7143H34.2857V57.1429H45.7143V45.7143Z" fill="#110421"/>
<path d="M57.1429 45.7143H45.7143V57.1429H57.1429V45.7143Z" fill="#110421"/>
<path d="M80 45.7143H68.5714V57.1429H80V45.7143Z" fill="#110421"/>
<path d="M114.286 45.7143H102.857V57.1429H114.286V45.7143Z" fill="#110421"/>
<path d="M125.714 45.7143H114.286V57.1429H125.714V45.7143Z" fill="#110421"/>
<path d="M148.571 45.7143H137.143V57.1429H148.571V45.7143Z" fill="#110421"/>
<path d="M171.429 45.7143H160V57.1429H171.429V45.7143Z" fill="#110421"/>
<path d="M194.286 45.7143H182.857V57.1429H194.286V45.7143Z" fill="#110421"/>
<path d="M205.714 45.7143H194.286V57.1429H205.714V45.7143Z" fill="#110421"/>
<path d="M217.143 45.7143H205.714V57.1429H217.143V45.7143Z" fill="#110421"/>
<path d="M240 45.7143H228.571V57.1429H240V45.7143Z" fill="#110421"/>
<path d="M11.4286 57.1429H0V68.5714H11.4286V57.1429Z" fill="#110421"/>
<path d="M80 57.1429H68.5714V68.5714H80V57.1429Z" fill="#110421"/>
<path d="M114.286 57.1429H102.857V68.5714H114.286V57.1429Z" fill="#110421"/>
<path d="M137.143 57.1429H125.714L125.714 68.5714H137.143V57.1429Z" fill="#110421"/>
<path d="M171.429 57.1429H160V68.5714H171.429V57.1429Z" fill="#110421"/>
<path d="M240 57.1429H228.571V68.5714H240V57.1429Z" fill="#110421"/>
<path d="M11.4286 68.5714H0V80H11.4286V68.5714Z" fill="#110421"/>
<path d="M22.8571 68.5714H11.4286V80H22.8571V68.5714Z" fill="#110421"/>
<path d="M34.2857 68.5714H22.8571V80H34.2857V68.5714Z" fill="#110421"/>
<path d="M45.7143 68.5714H34.2857V80H45.7143V68.5714Z" fill="#110421"/>
<path d="M57.1429 68.5714H45.7143V80H57.1429V68.5714Z" fill="#110421"/>
<path d="M68.5714 68.5714H57.1429V80H68.5714V68.5714Z" fill="#110421"/>
<path d="M80 68.5714H68.5714V80H80V68.5714Z" fill="#110421"/>
<path d="M102.857 68.5714H91.4286V80H102.857L102.857 68.5714Z" fill="#110421"/>
<path d="M125.714 68.5714H114.286L114.286 80H125.714L125.714 68.5714Z" fill="#110421"/>
<path d="M148.571 68.5714H137.143V80H148.571V68.5714Z" fill="#110421"/>
<path d="M171.429 68.5714H160V80H171.429V68.5714Z" fill="#110421"/>
<path d="M182.857 68.5714H171.429V80H182.857V68.5714Z" fill="#110421"/>
<path d="M194.286 68.5714H182.857V80H194.286V68.5714Z" fill="#110421"/>
<path d="M205.714 68.5714H194.286V80H205.714V68.5714Z" fill="#110421"/>
<path d="M217.143 68.5714H205.714V80H217.143V68.5714Z" fill="#110421"/>
<path d="M228.571 68.5714H217.143V80H228.571V68.5714Z" fill="#110421"/>
<path d="M240 68.5714H228.571V80H240V68.5714Z" fill="#110421"/>
<path d="M114.286 80H102.857L102.857 91.4286H114.286L114.286 80Z" fill="#110421"/>
<path d="M148.571 80H137.143V91.4286H148.571V80Z" fill="#110421"/>
<path d="M22.8571 91.4286H11.4286V102.857H22.8571V91.4286Z" fill="#110421"/>
<path d="M34.2857 91.4286H22.8571V102.857H34.2857V91.4286Z" fill="#110421"/>
<path d="M45.7143 91.4286H34.2857V102.857H45.7143V91.4286Z" fill="#110421"/>
<path d="M80 91.4286H68.5714V102.857H80V91.4286Z" fill="#110421"/>
<path d="M91.4286 91.4286H80V102.857H91.4286V91.4286Z" fill="#110421"/>
<path d="M102.857 91.4286L91.4286 91.4286V102.857H102.857L102.857 91.4286Z" fill="#110421"/>
<path d="M125.714 91.4286L114.286 91.4286L114.286 102.857H125.714V91.4286Z" fill="#110421"/>
<path d="M160 91.4286L148.571 91.4286V102.857H160V91.4286Z" fill="#110421"/>
<path d="M240 91.4286H228.571V102.857H240V91.4286Z" fill="#110421"/>
<path d="M22.8571 102.857H11.4286V114.286H22.8571V102.857Z" fill="#110421"/>
<path d="M45.7143 102.857H34.2857V114.286H45.7143V102.857Z" fill="#110421"/>
<path d="M57.1429 102.857L45.7143 102.857V114.286H57.1429V102.857Z" fill="#110421"/>
<path d="M68.5714 102.857L57.1429 102.857V114.286H68.5714V102.857Z" fill="#110421"/>
<path d="M91.4286 102.857H80V114.286H91.4286V102.857Z" fill="#110421"/>
<path d="M102.857 102.857H91.4286V114.286H102.857V102.857Z" fill="#110421"/>
<path d="M125.714 102.857H114.286V114.286H125.714V102.857Z" fill="#110421"/>
<path d="M137.143 102.857L125.714 102.857V114.286H137.143V102.857Z" fill="#110421"/>
<path d="M148.571 102.857L137.143 102.857V114.286H148.571V102.857Z" fill="#110421"/>
<path d="M182.857 102.857H171.429V114.286H182.857V102.857Z" fill="#110421"/>
<path d="M205.714 102.857H194.286V114.286H205.714V102.857Z" fill="#110421"/>
<path d="M217.143 102.857H205.714V114.286H217.143V102.857Z" fill="#110421"/>
<path d="M240 102.857H228.571V114.286H240V102.857Z" fill="#110421"/>
<path d="M22.8571 114.286H11.4286V125.714H22.8571V114.286Z" fill="#110421"/>
<path d="M80 114.286H68.5714V125.714H80V114.286Z" fill="#110421"/>
<path d="M91.4286 114.286H80V125.714H91.4286V114.286Z" fill="#110421"/>
<path d="M148.571 114.286H137.143V125.714H148.571V114.286Z" fill="#110421"/>
<path d="M171.429 114.286L160 114.286V125.714H171.429V114.286Z" fill="#110421"/>
<path d="M194.286 114.286H182.857V125.714H194.286V114.286Z" fill="#110421"/>
<path d="M205.714 114.286H194.286V125.714H205.714V114.286Z" fill="#110421"/>
<path d="M228.571 114.286H217.143V125.714H228.571V114.286Z" fill="#110421"/>
<path d="M240 114.286H228.571V125.714H240V114.286Z" fill="#110421"/>
<path d="M45.7143 125.714H34.2857V137.143H45.7143V125.714Z" fill="#110421"/>
<path d="M57.1429 125.714H45.7143V137.143H57.1429V125.714Z" fill="#110421"/>
<path d="M91.4286 125.714H80V137.143H91.4286V125.714Z" fill="#110421"/>
<path d="M125.714 125.714H114.286V137.143H125.714V125.714Z" fill="#110421"/>
<path d="M160 125.714H148.571V137.143H160V125.714Z" fill="#110421"/>
<path d="M182.857 125.714H171.429V137.143H182.857V125.714Z" fill="#110421"/>
<path d="M240 125.714H228.571V137.143H240V125.714Z" fill="#110421"/>
<path d="M11.4286 137.143H0V148.571H11.4286V137.143Z" fill="#110421"/>
<path d="M34.2857 137.143H22.8571V148.571H34.2857V137.143Z" fill="#110421"/>
<path d="M45.7143 137.143H34.2857V148.571H45.7143V137.143Z" fill="#110421"/>
<path d="M57.1429 137.143H45.7143V148.571H57.1429V137.143Z" fill="#110421"/>
<path d="M68.5714 137.143H57.1429V148.571H68.5714V137.143Z" fill="#110421"/>
<path d="M80 137.143H68.5714V148.571H80V137.143Z" fill="#110421"/>
<path d="M91.4286 137.143H80V148.571H91.4286V137.143Z" fill="#110421"/>
<path d="M102.857 137.143H91.4286V148.571H102.857V137.143Z" fill="#110421"/>
<path d="M114.286 137.143H102.857V148.571H114.286L114.286 137.143Z" fill="#110421"/>
<path d="M160 137.143H148.571V148.571H160V137.143Z" fill="#110421"/>
<path d="M171.429 137.143H160V148.571H171.429V137.143Z" fill="#110421"/>
<path d="M182.857 137.143H171.429V148.571H182.857V137.143Z" fill="#110421"/>
<path d="M194.286 137.143H182.857V148.571H194.286V137.143Z" fill="#110421"/>
<path d="M205.714 137.143H194.286V148.571H205.714V137.143Z" fill="#110421"/>
<path d="M102.857 148.571H91.4286L91.4286 160H102.857V148.571Z" fill="#110421"/>
<path d="M125.714 148.571H114.286L114.286 160H125.714V148.571Z" fill="#110421"/>
<path d="M160 148.571H148.571V160H160V148.571Z" fill="#110421"/>
<path d="M182.857 148.571H171.429V160H182.857V148.571Z" fill="#110421"/>
<path d="M240 148.571H228.571V160H240V148.571Z" fill="#110421"/>
<path d="M11.4286 160H0V171.429H11.4286V160Z" fill="#110421"/>
<path d="M22.8571 160H11.4286V171.429H22.8571V160Z" fill="#110421"/>
<path d="M34.2857 160H22.8571V171.429H34.2857V160Z" fill="#110421"/>
<path d="M45.7143 160H34.2857V171.429H45.7143V160Z" fill="#110421"/>
<path d="M57.1429 160H45.7143V171.429H57.1429V160Z" fill="#110421"/>
<path d="M68.5714 160H57.1429V171.429H68.5714V160Z" fill="#110421"/>
<path d="M80 160H68.5714V171.429H80V160Z" fill="#110421"/>
<path d="M102.857 160H91.4286V171.429H102.857V160Z" fill="#110421"/>
<path d="M114.286 160H102.857V171.429H114.286L114.286 160Z" fill="#110421"/>
<path d="M148.571 160H137.143V171.429H148.571V160Z" fill="#110421"/>
<path d="M160 160H148.571V171.429H160V160Z" fill="#110421"/>
<path d="M171.429 160H160V171.429H171.429V160Z" fill="#110421"/>
<path d="M217.143 160H205.714V171.429H217.143V160Z" fill="#110421"/>
<path d="M11.4286 171.429H0V182.857H11.4286V171.429Z" fill="#110421"/>
<path d="M80 171.429H68.5714V182.857H80V171.429Z" fill="#110421"/>
<path d="M171.429 171.429H160V182.857H171.429V171.429Z" fill="#110421"/>
<path d="M205.714 171.429H194.286V182.857H205.714V171.429Z" fill="#110421"/>
<path d="M228.571 171.429H217.143V182.857H228.571V171.429Z" fill="#110421"/>
<path d="M240 171.429H228.571V182.857H240V171.429Z" fill="#110421"/>
<path d="M11.4286 182.857H0V194.286H11.4286V182.857Z" fill="#110421"/>
<path d="M34.2857 182.857H22.8571V194.286H34.2857V182.857Z" fill="#110421"/>
<path d="M45.7143 182.857H34.2857V194.286H45.7143V182.857Z" fill="#110421"/>
<path d="M57.1429 182.857H45.7143V194.286H57.1429V182.857Z" fill="#110421"/>
<path d="M80 182.857H68.5714V194.286H80V182.857Z" fill="#110421"/>
<path d="M114.286 182.857H102.857V194.286H114.286V182.857Z" fill="#110421"/>
<path d="M125.714 182.857H114.286V194.286H125.714V182.857Z" fill="#110421"/>
<path d="M137.143 182.857H125.714V194.286H137.143V182.857Z" fill="#110421"/>
<path d="M182.857 182.857H171.429V194.286H182.857V182.857Z" fill="#110421"/>
<path d="M205.714 182.857H194.286V194.286H205.714V182.857Z" fill="#110421"/>
<path d="M217.143 182.857H205.714V194.286H217.143V182.857Z" fill="#110421"/>
<path d="M240 182.857H228.571V194.286H240V182.857Z" fill="#110421"/>
<path d="M11.4286 194.286H0V205.714H11.4286V194.286Z" fill="#110421"/>
<path d="M34.2857 194.286H22.8571V205.714H34.2857V194.286Z" fill="#110421"/>
<path d="M45.7143 194.286H34.2857V205.714H45.7143V194.286Z" fill="#110421"/>
<path d="M57.1429 194.286H45.7143V205.714H57.1429V194.286Z" fill="#110421"/>
<path d="M80 194.286H68.5714V205.714H80V194.286Z" fill="#110421"/>
<path d="M102.857 194.286H91.4286V205.714H102.857L102.857 194.286Z" fill="#110421"/>
<path d="M137.143 194.286H125.714L125.714 205.714H137.143V194.286Z" fill="#110421"/>
<path d="M148.571 194.286H137.143V205.714H148.571V194.286Z" fill="#110421"/>
<path d="M160 194.286H148.571V205.714H160V194.286Z" fill="#110421"/>
<path d="M171.429 194.286H160V205.714H171.429V194.286Z" fill="#110421"/>
<path d="M182.857 194.286H171.429V205.714H182.857V194.286Z" fill="#110421"/>
<path d="M194.286 194.286H182.857V205.714H194.286V194.286Z" fill="#110421"/>
<path d="M217.143 194.286H205.714V205.714H217.143V194.286Z" fill="#110421"/>
<path d="M228.571 194.286H217.143V205.714H228.571V194.286Z" fill="#110421"/>
<path d="M11.4286 205.714H0V217.143H11.4286V205.714Z" fill="#110421"/>
<path d="M34.2857 205.714H22.8571V217.143H34.2857V205.714Z" fill="#110421"/>
<path d="M45.7143 205.714H34.2857V217.143H45.7143V205.714Z" fill="#110421"/>
<path d="M57.1429 205.714H45.7143V217.143H57.1429V205.714Z" fill="#110421"/>
<path d="M80 205.714H68.5714V217.143H80V205.714Z" fill="#110421"/>
<path d="M102.857 205.714H91.4286V217.143H102.857V205.714Z" fill="#110421"/>
<path d="M125.714 205.714H114.286V217.143H125.714L125.714 205.714Z" fill="#110421"/>
<path d="M137.143 205.714H125.714L125.714 217.143H137.143V205.714Z" fill="#110421"/>
<path d="M182.857 205.714H171.429V217.143H182.857V205.714Z" fill="#110421"/>
<path d="M205.714 205.714H194.286V217.143H205.714V205.714Z" fill="#110421"/>
<path d="M217.143 205.714H205.714V217.143H217.143V205.714Z" fill="#110421"/>
<path d="M228.571 205.714H217.143V217.143H228.571V205.714Z" fill="#110421"/>
<path d="M11.4286 217.143H0V228.571H11.4286V217.143Z" fill="#110421"/>
<path d="M80 217.143H68.5714V228.571H80V217.143Z" fill="#110421"/>
<path d="M102.857 217.143H91.4286V228.571H102.857V217.143Z" fill="#110421"/>
<path d="M125.714 217.143H114.286V228.571H125.714V217.143Z" fill="#110421"/>
<path d="M137.143 217.143H125.714V228.571H137.143V217.143Z" fill="#110421"/>
<path d="M148.571 217.143H137.143V228.571H148.571V217.143Z" fill="#110421"/>
<path d="M160 217.143H148.571V228.571H160V217.143Z" fill="#110421"/>
<path d="M171.429 217.143H160V228.571H171.429V217.143Z" fill="#110421"/>
<path d="M194.286 217.143H182.857V228.571H194.286V217.143Z" fill="#110421"/>
<path d="M217.143 217.143H205.714V228.571H217.143V217.143Z" fill="#110421"/>
<path d="M240 217.143H228.571V228.571H240V217.143Z" fill="#110421"/>
<path d="M11.4286 228.571H0V240H11.4286V228.571Z" fill="#110421"/>
<path d="M22.8571 228.571H11.4286V240H22.8571V228.571Z" fill="#110421"/>
<path d="M34.2857 228.571H22.8571V240H34.2857V228.571Z" fill="#110421"/>
<path d="M45.7143 228.571H34.2857V240H45.7143V228.571Z" fill="#110421"/>
<path d="M57.1429 228.571H45.7143V240H57.1429V228.571Z" fill="#110421"/>
<path d="M68.5714 228.571H57.1429V240H68.5714V228.571Z" fill="#110421"/>
<path d="M80 228.571H68.5714V240H80V228.571Z" fill="#110421"/>
<path d="M137.143 228.571H125.714L125.714 240H137.143V228.571Z" fill="#110421"/>
<path d="M148.571 228.571H137.143V240H148.571V228.571Z" fill="#110421"/>
<path d="M160 228.571H148.571V240H160V228.571Z" fill="#110421"/>
<path d="M217.143 228.571H205.714V240H217.143V228.571Z" fill="#110421"/>
</svg>
